<?xml version="1.0" encoding="UTF-8"?>
<svg version="1.1" xmlns="http://www.w3.org/2000/svg" width="234" height="216">
<path d="M0 0 C3.704915 1.58782072 4.02313292 3.70325973 5.53829956 7.3086853 C7.65030237 12.78219421 9.46774246 18.34887639 11.28515625 23.92578125 C11.72036629 25.25190118 12.15587327 26.57792369 12.59165955 27.90385437 C13.49978316 30.67051149 14.40456456 33.43823202 15.30688477 36.20678711 C16.45272089 39.72172643 17.60651378 43.23399088 18.76282597 46.7454958 C19.66253166 49.48057418 20.55810023 52.216994 21.45248222 54.95381737 C22.07893303 56.86855402 22.70861417 58.78223285 23.33839417 60.69587708 C23.91931068 62.48284248 23.91931068 62.48284248 24.51196289 64.3059082 C24.84853409 65.33577347 25.18510529 66.36563873 25.53187561 67.42671204 C27.06470755 72.61263045 28.31343776 77.87875105 29.625 83.125 C58.005 83.125 86.385 83.125 115.625 83.125 C116.615 79.495 117.605 75.865 118.625 72.125 C119.20826619 70.20702158 119.80598178 68.29323943 120.4309082 66.38842773 C120.91204826 64.91520302 120.91204826 64.91520302 121.40290833 63.41221619 C121.74045639 62.38802078 122.07800446 61.36382538 122.42578125 60.30859375 C122.78463913 59.21265396 123.14349701 58.11671417 123.51322937 56.98756409 C124.65211552 53.51170462 125.79478979 50.0371039 126.9375 46.5625 C127.6922964 44.25984399 128.44685552 41.95711019 129.20117188 39.65429688 C130.66041164 35.20147931 132.12432936 30.75024437 133.59228516 26.30029297 C134.88503574 22.38117032 136.16632668 18.45869847 137.43505859 14.53173828 C137.97099094 12.88703198 138.50695837 11.24233712 139.04296875 9.59765625 C139.27897293 8.85752792 139.51497711 8.1173996 139.75813293 7.35484314 C141.39881767 2.35118233 141.39881767 2.35118233 143.625 0.125 C146.5 -0.125 146.5 -0.125 149.625 1.125 C153.73026943 8.27246909 155.578356 17.08035537 157.9972229 24.94528198 C161.61905241 36.71002311 165.3458077 48.43387731 169.27618408 60.09915161 C173.7209485 73.29499467 178.0809207 86.51847909 182.35067749 99.77200317 C182.98720003 101.74280558 183.62730535 103.71245476 184.27114868 105.68087769 C185.17372107 108.44302665 186.06301927 111.20912389 186.94921875 113.9765625 C187.22051605 114.79807297 187.49181335 115.61958344 187.77133179 116.46598816 C189.25138906 121.14465045 190.05587359 125.15603556 189.625 130.125 C187.06965995 134.32217689 183.50091837 136.89800872 179.5 139.625 C178.2404075 140.5045243 176.98131735 141.38476833 175.72265625 142.265625 C175.05637207 142.72904297 174.39008789 143.19246094 173.70361328 143.66992188 C170.08802546 146.20091828 166.51360635 148.78866005 162.9375 151.375 C162.1832373 151.91962891 161.42897461 152.46425781 160.65185547 153.02539062 C154.3162193 157.60742512 148.02285352 162.24558707 141.73388672 166.89135742 C132.67393979 173.57740175 123.53463888 180.15236019 114.39550781 186.72949219 C112.15889858 188.33965507 109.92295185 189.95073068 107.6875 191.5625 C106.95619873 192.08972656 106.22489746 192.61695313 105.47143555 193.16015625 C98.94237747 197.87689571 92.45897626 202.65475321 85.99243164 207.45678711 C84.53054827 208.53933 83.0639418 209.61553563 81.59179688 210.68408203 C80.35101127 211.59310842 79.12562089 212.52390128 77.92382812 213.48388672 C76.390625 214.65234375 76.390625 214.65234375 73.625 216.125 C68.51514315 215.3461106 63.98373177 210.87086539 59.9375 207.8125 C58.22713186 206.53569528 56.51618059 205.25967138 54.8046875 203.984375 C53.9394043 203.33791016 53.07412109 202.69144531 52.18261719 202.02539062 C48.33594977 199.16719483 44.45215188 196.36177968 40.5625 193.5625 C39.82418945 193.03027832 39.08587891 192.49805664 38.32519531 191.94970703 C36.09241752 190.34060747 33.8588416 188.73262232 31.625 187.125 C21.61949602 179.92436792 11.64811522 172.68249214 1.73291016 165.35791016 C-3.63574654 161.39598438 -9.0264538 157.46631401 -14.4375 153.5625 C-15.16525635 153.03664307 -15.8930127 152.51078613 -16.64282227 151.96899414 C-20.54941385 149.14970195 -24.46742964 146.34765767 -28.3984375 143.5625 C-29.22077881 142.97670166 -30.04312012 142.39090332 -30.89038086 141.78735352 C-32.46568784 140.66553678 -34.0444581 139.54856212 -35.62719727 138.43725586 C-36.33674561 137.93073486 -37.04629395 137.42421387 -37.77734375 136.90234375 C-38.40116943 136.46140381 -39.02499512 136.02046387 -39.66772461 135.56616211 C-42.7831884 132.93630614 -44.22381497 131.23443656 -44.78710938 127.10083008 C-44.21815687 121.61185408 -42.55118769 116.72159509 -40.78125 111.51171875 C-40.40263824 110.36896988 -40.02402649 109.22622101 -39.63394165 108.04884338 C-38.60402788 104.94485901 -37.56532383 101.84398506 -36.52298737 98.74415588 C-35.43569917 95.50294046 -34.36015213 92.25784299 -33.28466797 89.01269531 C-33.06850515 88.36049955 -32.85234234 87.70830379 -32.62962914 87.03634453 C-32.19026131 85.71058069 -31.75094505 84.38479976 -31.31167984 83.05900192 C-30.64533611 81.04923963 -29.97766838 79.03992092 -29.30978394 77.03067017 C-24.58581873 62.80709023 -20.03470842 48.52895189 -15.50708008 34.24179077 C-9.44892963 15.12979588 -9.44892963 15.12979588 -6.5546875 6.796875 C-6.17812012 5.70987305 -5.80155273 4.62287109 -5.41357422 3.50292969 C-4.06786371 0.42177774 -3.30333623 0.1738598 0 0 Z " fill="#FB6D26" transform="translate(44.375,-0.125)"/>
<path d="M0 0 C19.8 0 39.6 0 60 0 C62.145 6.455625 64.29 12.91125 66.5 19.5625 C67.17869141 21.58705322 67.85738281 23.61160645 68.55664062 25.69750977 C69.09066617 27.32020484 69.62392059 28.94315397 70.15625 30.56640625 C70.43694336 31.39426636 70.71763672 32.22212646 71.00683594 33.07507324 C72.56062869 37.85099391 73.46120292 41.91101756 73 47 C70.44465995 51.19717689 66.87591837 53.77300872 62.875 56.5 C61.6154075 57.3795243 60.35631735 58.25976833 59.09765625 59.140625 C58.43137207 59.60404297 57.76508789 60.06746094 57.07861328 60.54492188 C53.46302546 63.07591828 49.88860635 65.66366005 46.3125 68.25 C45.5582373 68.79462891 44.80397461 69.33925781 44.02685547 69.90039062 C37.6912193 74.48242512 31.39785352 79.12058707 25.10888672 83.76635742 C16.04893979 90.45240175 6.90963888 97.02736019 -2.22949219 103.60449219 C-20.88761062 116.85922871 -20.88761062 116.85922871 -39.11962891 130.68115234 C-41 132 -41 132 -43 132 C-42.40218299 126.97946663 -41.34103847 122.45240505 -39.7890625 117.6171875 C-39.5686026 116.92688446 -39.3481427 116.23658142 -39.1210022 115.52536011 C-36.84965325 108.4485241 -34.49290452 101.39951893 -32.12426758 94.35476685 C-26.68199131 78.15894103 -21.38346498 61.9193403 -16.14619446 45.65628052 C-13.48672013 37.40026298 -10.80909893 29.15013445 -8.13183594 20.89987183 C-7.32341601 18.40863887 -6.51519112 15.91734272 -5.70703125 13.42602539 C-4.47150108 9.61730258 -3.23580437 5.80863385 -2 2 C-1.34 2 -0.68 2 0 2 C0 1.34 0 0.68 0 0 Z " fill="#FB6D26" transform="translate(161,83)"/>
<path d="M0 0 C28.38 0 56.76 0 86 0 C79.46230098 21.79233007 79.46230098 21.79233007 75.80859375 32.578125 C73.67392737 38.93419553 71.62980969 45.31950927 69.57485962 51.70166016 C64.86108489 66.33978779 60.04890226 80.94249071 55.14794922 95.51904297 C52.32949491 103.916375 49.61045578 112.3378542 46.99365234 120.80029297 C46.34985337 122.87342058 45.68646451 124.94060647 45 127 C43.68 127 42.36 127 41 127 C40.76514893 126.27039063 40.53029785 125.54078125 40.28833008 124.7890625 C39.13027928 121.19252803 37.97155958 117.59620946 36.8125 114 C36.59203003 113.31586029 36.37156006 112.63172058 36.14440918 111.92684937 C33.41989491 103.47451397 30.68596694 95.02533886 27.93359375 86.58203125 C21.43270243 66.63522999 15.00364204 46.66751938 8.66894531 26.66723633 C8.38662552 25.77682144 8.10430573 24.88640656 7.81343079 23.9690094 C7.29339949 22.32851041 6.77410157 20.68777863 6.25578308 19.04673767 C4.2354868 12.67374799 2.11497277 6.34491831 0 0 Z " fill="#E24328" transform="translate(74,84)"/>
<path d="M0 0 C3.71678237 3.66203816 7.02089013 7.37047246 10.1875 11.5 C10.84395508 12.33337891 10.84395508 12.33337891 11.51367188 13.18359375 C13.41683927 15.65335297 14.94467419 17.85356144 16.05078125 20.78125 C17.24658142 23.57637139 18.29771896 23.78092585 21 25 C22.703125 26.875 22.703125 26.875 24.25 29 C24.77078125 29.70125 25.2915625 30.4025 25.828125 31.125 C27 33 27 33 27 35 C27.66 35 28.32 35 29 35 C30.27448143 36.57365547 31.46898948 38.21237132 32.625 39.875 C35.96520542 44.58632048 39.44416123 49.12328778 43.07421875 53.61328125 C48.26556603 60.04718224 53.26335369 66.63575993 58.29931641 73.19140625 C60.77105729 76.40778385 63.25386964 79.61502328 65.75 82.8125 C68.40917187 86.22073437 71.00115063 89.67392868 73.578125 93.14453125 C74.95578706 94.94230454 76.39650803 96.6597832 77.875 98.375 C80 101 80 101 80 103 C80.66 103 81.32 103 82 103 C82.33 104.32 82.66 105.64 83 107 C83.66 107 84.32 107 85 107 C86.27448143 108.57365547 87.46898948 110.21237132 88.625 111.875 C91.4577489 115.86566085 94.33649948 119.78806138 97.375 123.625 C98.02210937 124.44226563 98.66921875 125.25953125 99.3359375 126.1015625 C100.86932277 128.0920882 100.86932277 128.0920882 103 129 C103 129.99 103 130.98 103 132 C99.34079957 130.34233812 96.17683884 128.09572812 92.9375 125.75 C92.33679688 125.31816406 91.73609375 124.88632813 91.1171875 124.44140625 C85.05371487 120.06835629 79.04540399 115.62010408 73.03320312 111.17700195 C67.25162765 106.90862752 61.42684563 102.7075396 55.5703125 98.54296875 C44.34136738 90.55618384 33.20873447 82.43852798 22.12866211 74.24682617 C16.57313291 70.14439595 10.98231952 66.09376492 5.375 62.0625 C-11.5724013 49.8551974 -11.5724013 49.8551974 -13 47 C-13.47830628 40.95652236 -12.06585132 36.19947993 -10.15625 30.56640625 C-9.86770142 29.68846909 -9.57915283 28.81053192 -9.28186035 27.9059906 C-8.36424213 25.121518 -7.43237681 22.34206113 -6.5 19.5625 C-5.87274886 17.66763161 -5.24643663 15.77245214 -4.62109375 13.87695312 C-3.09157321 9.24763082 -1.54926331 4.62275068 0 0 Z " fill="#FBA227" transform="translate(13,83)"/>
<path d="M0 0 C2.35082433 3.52623649 3.51648055 7.14951099 4.8203125 11.140625 C5.08383514 11.9410321 5.34735779 12.74143921 5.61886597 13.56610107 C6.17434508 15.25988679 6.72727189 16.95451135 7.27783203 18.64990234 C8.1184578 21.22992091 8.97483306 23.80435412 9.83203125 26.37890625 C10.37077075 28.02832636 10.90856193 29.67805658 11.4453125 31.328125 C11.70152374 32.09191467 11.95773499 32.85570435 12.22171021 33.64263916 C13.68538701 38.21632183 14.40580867 42.13789539 14 47 C11.44465995 51.19717689 7.87591837 53.77300872 3.875 56.5 C2.6154075 57.3795243 1.35631735 58.25976833 0.09765625 59.140625 C-0.56862793 59.60404297 -1.23491211 60.06746094 -1.92138672 60.54492188 C-5.53697454 63.07591828 -9.11139365 65.66366005 -12.6875 68.25 C-13.4417627 68.79462891 -14.19602539 69.33925781 -14.97314453 69.90039062 C-21.3087807 74.48242512 -27.60214648 79.12058707 -33.89111328 83.76635742 C-42.95106021 90.45240175 -52.09036112 97.02736019 -61.22949219 103.60449219 C-79.88761062 116.85922871 -79.88761062 116.85922871 -98.11962891 130.68115234 C-100 132 -100 132 -102 132 C-102 130.68 -102 129.36 -102 128 C-100.03533587 126.93224776 -98.03144641 125.93446535 -96 125 C-95.34 125.33 -94.68 125.66 -94 126 C-93.95875 124.989375 -93.9175 123.97875 -93.875 122.9375 C-93.28839905 118.91164962 -91.56379273 116.94174315 -88.82421875 114.04296875 C-85.80267776 110.65910164 -83.31922828 106.88214459 -80.734375 103.16015625 C-80.16203125 102.44730469 -79.5896875 101.73445313 -79 101 C-78.34 101 -77.68 101 -77 101 C-76.7421875 100.27425781 -76.484375 99.54851562 -76.21875 98.80078125 C-74.94757501 95.87952333 -73.45983598 93.69127351 -71.5 91.1875 C-70.8915625 90.39730469 -70.283125 89.60710937 -69.65625 88.79296875 C-69.1096875 88.20128906 -68.563125 87.60960937 -68 87 C-67.34 87 -66.68 87 -66 87 C-65.75378906 86.28199219 -65.50757813 85.56398438 -65.25390625 84.82421875 C-63.85883684 81.68205308 -62.13528193 79.44904058 -59.9375 76.8125 C-57.19079836 73.58717013 -57.19079836 73.58717013 -55 70 C-54.34 70 -53.68 70 -53 70 C-52.62681641 69.17628906 -52.62681641 69.17628906 -52.24609375 68.3359375 C-50.7557391 65.54210653 -48.97515695 63.14984552 -47.0625 60.625 C-46.670625 60.10752197 -46.27875 59.59004395 -45.875 59.05688477 C-39.59111731 50.79205238 -33.18923086 42.61782005 -26.5625 34.625 C-21.85298092 28.90629825 -17.4429681 22.97916722 -13.01953125 17.0390625 C-8.74757886 11.30728514 -4.37529323 5.65303373 0 0 Z " fill="#FBA327" transform="translate(220,83)"/>
<path d="M0 0 C3.125 1.25 3.125 1.25 4.12719727 2.99487305 C6.86565527 10.27073711 9.21641912 17.65315381 11.50106812 25.08099365 C14.65279618 35.32687724 17.85398098 45.55220588 21.2890625 55.70703125 C21.54423141 56.46260818 21.79940033 57.21818512 22.06230164 57.99665833 C23.2878782 61.61888194 24.52361238 65.23729068 25.77172852 68.85180664 C26.21651367 70.15894716 26.6611044 71.46615386 27.10546875 72.7734375 C27.49629639 73.90700684 27.88712402 75.04057617 28.28979492 76.20849609 C29.125 79.25 29.125 79.25 29.125 84.25 C-0.08 83.755 -0.08 83.755 -29.875 83.25 C-28.7499924 74.24993919 -28.7499924 74.24993919 -27.2043457 69.57861328 C-26.69294792 68.01495529 -26.69294792 68.01495529 -26.17121887 66.41970825 C-25.80147446 65.31440765 -25.43173004 64.20910706 -25.05078125 63.0703125 C-24.47495552 61.32015335 -24.47495552 61.32015335 -23.88749695 59.53463745 C-22.66103037 55.81245022 -21.42442009 52.09372482 -20.1875 48.375 C-19.37498373 45.91428274 -18.56312856 43.45334709 -17.75195312 40.9921875 C-16.18582969 36.24419059 -14.61281266 31.49857195 -13.03369141 26.75488281 C-11.6816287 22.69147874 -10.34348036 18.62419359 -9.02490234 14.54980469 C-8.74970261 13.70545868 -8.47450287 12.86111267 -8.19096375 11.99118042 C-7.69249238 10.46029408 -7.19850675 8.92793633 -6.71003723 7.39382935 C-4.41539717 0.38394758 -4.41539717 0.38394758 0 0 Z " fill="#E24429" transform="translate(190.875,-0.25)"/>
<path d="M0 0 C4.8370103 2.35951722 5.94881465 8.52561468 7.67266846 13.3694458 C8.89514115 16.9798052 10.08230341 20.60073656 11.2578125 24.2265625 C11.69533102 25.56468874 12.133235 26.90268901 12.57150269 28.24057007 C13.48365645 31.0282642 14.3927493 33.81692947 15.29931641 36.60644531 C16.4561821 40.16605559 17.61832101 43.7239144 18.78245735 47.28115273 C19.90102951 50.69987298 21.01704183 54.1194271 22.1328125 57.5390625 C22.34288059 58.18222034 22.55294868 58.82537819 22.76938248 59.48802567 C24.04740695 63.40439091 25.31215051 67.32471375 26.5625 71.25 C26.91800934 72.35296417 26.91800934 72.35296417 27.28070068 73.47821045 C28.37076747 77.02208868 28.5625 79.40399038 28.5625 83.25 C9.7525 83.25 -9.0575 83.25 -28.4375 83.25 C-26.4375 73.25 -26.4375 73.25 -25.4375 70.25 C-24.7775 70.25 -24.1175 70.25 -23.4375 70.25 C-23.50418633 69.17855492 -23.50418633 69.17855492 -23.57221985 68.08546448 C-23.86168004 59.75139681 -22.27179396 53.00396457 -19.60546875 45.15234375 C-19.21305496 43.95565567 -18.82064117 42.75896759 -18.41633606 41.52601624 C-17.37999946 38.38110898 -16.32761327 35.24218403 -15.26824951 32.10498047 C-14.40679512 29.53704698 -13.56557521 26.96268231 -12.72461987 24.38797665 C-11.71584129 21.30607099 -10.69170222 18.22930828 -9.66796875 15.15234375 C-9.28972458 14.0024144 -8.91148041 12.85248505 -8.52177429 11.66770935 C-8.16162735 10.60552689 -7.80148041 9.54334442 -7.43041992 8.44897461 C-7.11731369 7.51476181 -6.80420746 6.58054901 -6.48161316 5.61802673 C-4.98352004 2.22038298 -3.7877044 0.3884825 0 0 Z " fill="#E1452B" transform="translate(44.4375,-0.25)"/>
<path d="M0 0 C1.32 0 2.64 0 4 0 C4 0.66 4 1.32 4 2 C4.804375 2.37125 4.804375 2.37125 5.625 2.75 C8 4 8 4 10.9375 6.125 C14.06532799 8.03999673 15.42957017 8.69425024 19 8 C19.66 7.01 20.32 6.02 21 5 C23.125 4.3125 23.125 4.3125 25 4 C25.33 5.32 25.66 6.64 26 8 C26.66 8 27.32 8 28 8 C29.27448143 9.57365547 30.46898948 11.21237132 31.625 12.875 C34.4577489 16.86566085 37.33649948 20.78806138 40.375 24.625 C41.02210937 25.44226563 41.66921875 26.25953125 42.3359375 27.1015625 C43.86932277 29.0920882 43.86932277 29.0920882 46 30 C46 30.99 46 31.98 46 33 C42.34077501 31.34232699 39.17693815 29.09562337 35.9375 26.75 C35.34042236 26.32106445 34.74334473 25.89212891 34.12817383 25.45019531 C27.98890555 21.02462767 21.90618338 16.52095036 15.83764648 11.99902344 C11.20280287 8.56098432 6.49862931 5.2969011 1.64575195 2.17285156 C1.10265381 1.78581055 0.55955566 1.39876953 0 1 C0 0.67 0 0.34 0 0 Z " fill="#F7A535" transform="translate(70,182)"/>
<path d="M0 0 C2 3 2 3 1.625 6.1875 C1.41875 7.115625 1.2125 8.04375 1 9 C0.34 9 -0.32 9 -1 9 C-1.19916016 10.03060547 -1.19916016 10.03060547 -1.40234375 11.08203125 C-1.57894531 11.98308594 -1.75554688 12.88414063 -1.9375 13.8125 C-2.11152344 14.70582031 -2.28554688 15.59914063 -2.46484375 16.51953125 C-3 19 -3 19 -4 22 C14.81 22 33.62 22 53 22 C53.33 21.34 53.66 20.68 54 20 C54 20.66 54 21.32 54 22 C82.38 22 110.76 22 140 22 C140.33 21.34 140.66 20.68 141 20 C140.67 21.32 140.34 22.64 140 24 C126.7291772 24.0307316 113.45835356 24.05102313 100.1875 24.0625 C99.20468426 24.06335602 98.22186852 24.06421204 97.20927048 24.06509399 C62.79501403 24.09156477 28.40584689 23.78950193 -6 23 C-5.49751717 19.17588369 -4.99317503 15.4916456 -3.80859375 11.81640625 C-3.58623047 11.11708984 -3.36386719 10.41777344 -3.13476562 9.69726562 C-2.78961914 8.64055664 -2.78961914 8.64055664 -2.4375 7.5625 C-2.20353516 6.83095703 -1.96957031 6.09941406 -1.72851562 5.34570312 C-1.15732778 3.56219821 -0.57936877 1.78086417 0 0 Z " fill="#EA8367" transform="translate(20,61)"/>
<path d="M0 0 C0.66 1.32 1.32 2.64 2 4 C2.66 4 3.32 4 4 4 C4.33 4.99 4.66 5.98 5 7 C4.51756836 7.34667725 4.03513672 7.69335449 3.53808594 8.05053711 C1.27448682 9.67827261 -0.98789984 11.30768201 -3.25 12.9375 C-4.06597656 13.52490967 -4.88195312 14.11231934 -5.72265625 14.7175293 C-11.49299441 18.88228222 -17.18407075 23.13406584 -22.8125 27.48828125 C-25 29 -25 29 -27 29 C-27 27.68 -27 26.36 -27 25 C-25.03533587 23.93224776 -23.03144641 22.93446535 -21 22 C-20.34 22.33 -19.68 22.66 -19 23 C-19 21.68 -19 20.36 -19 19 C-17.09316578 16.548356 -16.02015057 16.00671686 -13 15 C-12.31867549 13.33927151 -11.65257873 11.672233 -11 10 C-10.01 9.34 -9.02 8.68 -8 8 C-7.34 8.66 -6.68 9.32 -6 10 C-3.89179203 9.6814823 -3.89179203 9.6814823 -2 9 C-2.66 7.68 -3.32 6.36 -4 5 C-3.34 4.01 -2.68 3.02 -2 2 C-1.34 2 -0.68 2 0 2 C0 1.34 0 0.68 0 0 Z " fill="#F6A934" transform="translate(145,186)"/>
<path d="M0 0 C0.63671875 1.8515625 0.63671875 1.8515625 1 4 C-1.1875 6.375 -1.1875 6.375 -4 9 C-4.721875 10.093125 -5.44375 11.18625 -6.1875 12.3125 C-6.785625 13.199375 -7.38375 14.08625 -8 15 C-8.66 15 -9.32 15 -10 15 C-10.25910156 15.72703125 -10.51820313 16.4540625 -10.78515625 17.203125 C-12.04235783 20.09751835 -13.50029424 22.2670438 -15.4375 24.75 C-16.03433594 25.52859375 -16.63117188 26.3071875 -17.24609375 27.109375 C-19 29 -19 29 -22 30 C-20.65961958 27.13727091 -19.13760321 24.7068948 -17.20703125 22.20703125 C-16.66199951 21.49796631 -16.11696777 20.78890137 -15.55541992 20.05834961 C-14.98025635 19.31721924 -14.40509277 18.57608887 -13.8125 17.8125 C-13.22895752 17.05525635 -12.64541504 16.2980127 -12.04418945 15.51782227 C-10.3663684 13.34241957 -8.6840529 11.17058028 -7 9 C-6.20335937 7.97132812 -5.40671875 6.94265625 -4.5859375 5.8828125 C-3.06116021 3.91879896 -1.53345229 1.95724274 0 0 Z M-23 30 C-22.67 30.99 -22.34 31.98 -22 33 C-22.66 33 -23.32 33 -24 33 C-24.2475 33.556875 -24.495 34.11375 -24.75 34.6875 C-26.21775784 37.402852 -28.06604916 39.59721259 -30 42 C-30.495 42.825 -30.99 43.65 -31.5 44.5 C-34.03642287 48.72737145 -36.29928582 52.15329086 -41 54 C-39.24363556 49.8710029 -36.46503188 46.59968132 -33.6875 43.125 C-33.21376953 42.52558594 -32.74003906 41.92617187 -32.25195312 41.30859375 C-29.22469444 37.49035502 -26.13282608 33.73200047 -23 30 Z " fill="#FE992F" transform="translate(217,87)"/>
<path d="M0 0 C19.14 0 38.28 0 58 0 C58 0.33 58 0.66 58 1 C57.10250282 1.0154612 57.10250282 1.0154612 56.18687439 1.03123474 C49.94096815 1.1396908 43.69519483 1.25425515 37.44946289 1.37231445 C35.12071523 1.41553834 32.79193844 1.45722192 30.46313477 1.49731445 C27.10944859 1.55532184 23.75590735 1.61892767 20.40234375 1.68359375 C19.36665756 1.70030624 18.33097137 1.71701874 17.26390076 1.73423767 C10.99067984 1.86184837 4.9991678 2.0002774 -1 4 C-1.12375 4.70125 -1.2475 5.4025 -1.375 6.125 C-2.03838345 9.17656387 -2.97211955 12.05340938 -4 15 C-5.18771723 11.57056481 -4.80226223 9.62215325 -3.5625 6.25 C-3.27503906 5.45078125 -2.98757812 4.6515625 -2.69140625 3.828125 C-2.46324219 3.22484375 -2.23507813 2.6215625 -2 2 C-1.34 2 -0.68 2 0 2 C0 1.34 0 0.68 0 0 Z " fill="#F86330" transform="translate(161,83)"/>
<path d="M0 0 C2 1 2 1 3.05322266 3.54443359 C3.4197998 4.65125488 3.78637695 5.75807617 4.1640625 6.8984375 C4.56367188 8.09984375 4.96328125 9.30125 5.375 10.5390625 C5.57996094 11.16844727 5.78492188 11.79783203 5.99609375 12.44628906 C6.62113758 14.36315483 7.25879235 16.27546364 7.8984375 18.1875 C11 27.59288758 11 27.59288758 11 31 C9.02 31 7.04 31 5 31 C5 30.34 5 29.68 5 29 C4.34 29 3.68 29 3 29 C3.309375 28.484375 3.61875 27.96875 3.9375 27.4375 C5.29059287 24.33334577 5.61359424 21.34884993 6 18 C5.34 18 4.68 18 4 18 C4 16.02 4 14.04 4 12 C3.34 12 2.68 12 2 12 C0.86235649 7.73383684 0 4.43513689 0 0 Z " fill="#DC533D" transform="translate(209,51)"/>
<path d="M0 0 C3.61191355 3.40818635 3.9717236 6.17501075 5 11 C2.69 11.33 0.38 11.66 -2 12 C-1.9175 12.70125 -1.835 13.4025 -1.75 14.125 C-2.0808255 17.92949327 -3.75313314 19.98077266 -6 23 C-7 21 -7 21 -6.47094727 18.84521484 C-6.02319946 17.54124756 -6.02319946 17.54124756 -5.56640625 16.2109375 C-5.24736328 15.26992187 -4.92832031 14.32890625 -4.59960938 13.359375 C-4.25736328 12.37453125 -3.91511719 11.3896875 -3.5625 10.375 C-3.05493164 8.88613281 -3.05493164 8.88613281 -2.53710938 7.3671875 C-1.69804913 4.90909552 -0.85209309 2.45359843 0 0 Z " fill="#F8A535" transform="translate(13,83)"/>
<path d="M0 0 C0 5.09631291 -2.46637512 7.65746473 -5.7265625 11.4453125 C-7.16442503 13.13769961 -7.16442503 13.13769961 -8.75 15.75 C-12.07059465 20.54641449 -16.04403556 24.72282477 -20 29 C-20 24.68949356 -17.56874845 22.16844656 -15.125 18.8125 C-14.66480469 18.15830078 -14.20460937 17.50410156 -13.73046875 16.83007812 C-12.54235146 15.17876728 -11.27643458 13.58403439 -10 12 C-9.34 12 -8.68 12 -8 12 C-7.60167969 11.14148438 -7.60167969 11.14148438 -7.1953125 10.265625 C-5.94323109 7.8923988 -4.5063648 5.87786714 -2.875 3.75 C-2.33617187 3.04359375 -1.79734375 2.3371875 -1.2421875 1.609375 C-0.83226562 1.07828125 -0.42234375 0.5471875 0 0 Z " fill="#FE9A2E" transform="translate(175,141)"/>
<path d="M0 0 C0.66 0.33 1.32 0.66 2 1 C0.1865285 8.51295337 0.1865285 8.51295337 -1.125 11.9375 C-2.28679581 16.00378534 -2.16795045 19.80123873 -2 24 C-2.66 23.67 -3.32 23.34 -4 23 C-4.66 23.66 -5.32 24.32 -6 25 C-7.22095366 21.50347185 -6.76884532 19.47527427 -5.56640625 16.015625 C-5.24736328 15.08105469 -4.92832031 14.14648438 -4.59960938 13.18359375 C-4.08624023 11.73146484 -4.08624023 11.73146484 -3.5625 10.25 C-3.22412109 9.26644531 -2.88574219 8.28289062 -2.53710938 7.26953125 C-1.7007587 4.84293634 -0.85478572 2.42014972 0 0 Z " fill="#D75B43" transform="translate(168,57)"/>
<path d="M0 0 C2.14915785 3.22373677 2.38286803 4.26703674 2 8 C1.34 8.66 0.68 9.32 0 10 C-0.64767793 12.57061311 -0.64767793 12.57061311 -1 15 C-1.66 15 -2.32 15 -3 15 C-3.19916016 16.03060547 -3.19916016 16.03060547 -3.40234375 17.08203125 C-3.57894531 17.98308594 -3.75554688 18.88414063 -3.9375 19.8125 C-4.19853516 21.15248047 -4.19853516 21.15248047 -4.46484375 22.51953125 C-5 25 -5 25 -6 28 C-6.66 28 -7.32 28 -8 28 C-6.64909235 21.50121609 -4.92169754 15.24896681 -2.875 8.9375 C-2.45927734 7.6390918 -2.45927734 7.6390918 -2.03515625 6.31445312 C-1.36031038 4.2084686 -0.68188659 2.10371313 0 0 Z " fill="#D3604B" transform="translate(32,24)"/>
<path d="M0 0 C2 1 2 1 3 2 C3.804375 1.95875 4.60875 1.9175 5.4375 1.875 C6.283125 1.91625 7.12875 1.9575 8 2 C8.99 3.485 8.99 3.485 10 5 C9.01 5 8.02 5 7 5 C7 6.32 7 7.64 7 9 C7.66 9.33 8.32 9.66 9 10 C5.16235973 10 3.88513915 8.73464665 0.8125 6.5 C-0.08855469 5.8503125 -0.98960938 5.200625 -1.91796875 4.53125 C-2.60503906 4.0259375 -3.29210938 3.520625 -4 3 C-2.68 2.01 -1.36 1.02 0 0 Z " fill="#F4AB3F" transform="translate(47,160)"/>
<path d="M0 0 C0.99 0.33 1.98 0.66 3 1 C2.67 1.33 2.34 1.66 2 2 C3.60875 2.3403125 3.60875 2.3403125 5.25 2.6875 C9.41815119 4.14635292 10.54394583 5.4523662 13 9 C13.66 9.33 14.32 9.66 15 10 C15 10.99 15 11.98 15 13 C11.11390189 11.24933204 7.72187742 8.81675994 4.25 6.375 C3.64800781 5.95476562 3.04601562 5.53453125 2.42578125 5.1015625 C0.94886957 4.07006863 -0.52579194 3.03535421 -2 2 C-1.34 1.34 -0.68 0.68 0 0 Z " fill="#F4AA45" transform="translate(101,202)"/>
<path d="M0 0 C2 3 2 3 1.828125 5.3046875 C0.48447536 11.27848115 -1.17512751 16.55203162 -4 22 C-4.66 22 -5.32 22 -6 22 C-4.47536437 14.50387484 -2.31993846 7.28640866 0 0 Z " fill="#D86150" transform="translate(181,16)"/>
<path d="M0 0 C0.33 0.66 0.66 1.32 1 2 C1.99 2 2.98 2 4 2 C4 2.66 4 3.32 4 4 C1.86229382 5.62677091 -0.2675534 7.13979644 -2.5 8.625 C-3.12003906 9.04523438 -3.74007812 9.46546875 -4.37890625 9.8984375 C-5.91517264 10.93837167 -7.45707524 11.96997056 -9 13 C-9.66 12.34 -10.32 11.68 -11 11 C-9.68 10.67 -8.36 10.34 -7 10 C-7 8.68 -7 7.36 -7 6 C-6.01 6 -5.02 6 -4 6 C-4 5.34 -4 4.68 -4 4 C-3.01 3.67 -2.02 3.34 -1 3 C-0.67 2.01 -0.34 1.02 0 0 Z " fill="#F3AD49" transform="translate(167,174)"/>
<path d="M0 0 C0.99 0.99 1.98 1.98 3 3 C-0.3 5.31 -3.6 7.62 -7 10 C-7.33 9.34 -7.66 8.68 -8 8 C-8.99 7.67 -9.98 7.34 -11 7 C-7.535 6.505 -7.535 6.505 -4 6 C-4 5.01 -4 4.02 -4 3 C-4.66 3 -5.32 3 -6 3 C-6 2.34 -6 1.68 -6 1 C-3 0 -3 0 0 0 Z " fill="#F9A736" transform="translate(228,131)"/>
<path d="M0 0 C-3.92831431 4.17383395 -8.16479983 7.89394426 -13 11 C-13.66 11 -14.32 11 -15 11 C-15 9.68 -15 8.36 -15 7 C-13.03533587 5.93224776 -11.03144641 4.93446535 -9 4 C-8.34 4.33 -7.68 4.66 -7 5 C-7 3.68 -7 2.36 -7 1 C-4.53721199 -0.231394 -2.7204945 -0.07159196 0 0 Z " fill="#F1B151" transform="translate(133,204)"/>
<path d="M0 0 C3.09503494 1.54751747 3.28777638 4.17451391 4.35742188 7.33984375 C4.63134766 8.17644531 4.90527344 9.01304688 5.1875 9.875 C5.47302734 10.70386719 5.75855469 11.53273438 6.05273438 12.38671875 C6.31763672 13.18464844 6.58253906 13.98257813 6.85546875 14.8046875 C7.09934326 15.53671387 7.34321777 16.26874023 7.59448242 17.02294922 C8 19 8 19 7 22 C6.67 20.68 6.34 19.36 6 18 C5.34 18 4.68 18 4 18 C4 16.02 4 14.04 4 12 C3.34 12 2.68 12 2 12 C0.86235649 7.73383684 0 4.43513689 0 0 Z " fill="#D45F4B" transform="translate(209,51)"/>
<path d="M0 0 C3.125 0.375 3.125 0.375 6 1 C6.66 2.98 7.32 4.96 8 7 C5.03 6.01 2.06 5.02 -1 4 C-1 4.99 -1 5.98 -1 7 C-1.66 7 -2.32 7 -3 7 C-2.25 2.25 -2.25 2.25 0 0 Z " fill="#D45540" transform="translate(188,0)"/>
<path d="M0 0 C2 3 2 3 1.625 6.1875 C1.41875 7.115625 1.2125 8.04375 1 9 C0.34 9 -0.32 9 -1 9 C-1.19916016 10.03060547 -1.19916016 10.03060547 -1.40234375 11.08203125 C-1.57894531 11.98308594 -1.75554688 12.88414063 -1.9375 13.8125 C-2.11152344 14.70582031 -2.28554688 15.59914063 -2.46484375 16.51953125 C-3 19 -3 19 -4 22 C-4.66 22 -5.32 22 -6 22 C-4.47536437 14.50387484 -2.31993846 7.28640866 0 0 Z " fill="#D3604D" transform="translate(20,61)"/>
<path d="M0 0 C2.02225194 3.0333779 2.99347524 5.61344489 4.125 9.0625 C4.47820313 10.12597656 4.83140625 11.18945312 5.1953125 12.28515625 C6 15 6 15 6 17 C5.01 17 4.02 17 3 17 C2.3054231 14.35583817 1.61906118 11.71001652 0.9375 9.0625 C0.73833984 8.30775391 0.53917969 7.55300781 0.33398438 6.77539062 C-0.15531385 4.8611186 -0.58271593 2.93124937 -1 1 C-0.67 0.67 -0.34 0.34 0 0 Z " fill="#D56853" transform="translate(50,10)"/>
<path d="M0 0 C0.66 0.33 1.32 0.66 2 1 C-1.53613714 5.78775956 -5.14483704 10.46451416 -9 15 C-9.33 14.34 -9.66 13.68 -10 13 C-8.7260411 10.96166576 -7.38938077 8.96147874 -6 7 C-5.34 7 -4.68 7 -4 7 C-3.8453125 6.1028125 -3.8453125 6.1028125 -3.6875 5.1875 C-2.91123545 2.71756736 -1.92911079 1.67748765 0 0 Z " fill="#F5761E" transform="translate(201,105)"/>
<path d="M0 0 C2.96404505 2.80804268 5.44499019 5.18315774 7 9 C4.625 9.125 4.625 9.125 2 9 C1.34 8.34 0.68 7.68 0 7 C-0.66 7 -1.32 7 -2 7 C-1.67 6.21625 -1.34 5.4325 -1 4.625 C0.11866511 2.15667503 0.11866511 2.15667503 0 0 Z " fill="#FB9F2A" transform="translate(101,196)"/>
<path d="M0 0 C-3.46994436 3.9036874 -7.55224006 6.36588975 -12 9 C-12 7.02 -12 5.04 -12 3 C-11.01 3.495 -11.01 3.495 -10 4 C-9.278125 3.34 -8.55625 2.68 -7.8125 2 C-4.78402067 -0.1535853 -3.60296594 -0.41176754 0 0 Z " fill="#F2B353" transform="translate(215,145)"/>
<path d="M0 0 C0.33 0 0.66 0 1 0 C0.59060025 6.76215448 -0.56953809 12.67162748 -3 19 C-3.66 19 -4.32 19 -5 19 C-3.64746536 12.54945018 -1.96939767 6.28894321 0 0 Z " fill="#FA682E" transform="translate(124,192)"/>
<path d="M0 0 C2.11044382 3.16566573 2.75552077 5.51197415 3.625 9.1875 C3.88539063 10.27417969 4.14578125 11.36085938 4.4140625 12.48046875 C4.60742188 13.31191406 4.80078125 14.14335937 5 15 C4.01 15.495 4.01 15.495 3 16 C3 15.01 3 14.02 3 13 C2.34 13 1.68 13 1 13 C1 10.69 1 8.38 1 6 C0.34 6 -0.32 6 -1 6 C-0.67 4.02 -0.34 2.04 0 0 Z " fill="#D56750" transform="translate(196,8)"/>
<path d="M0 0 C0.33 0 0.66 0 1 0 C1.35218938 4.93065125 0.37409064 7.70837462 -2 12 C-2.350625 12.928125 -2.70125 13.85625 -3.0625 14.8125 C-4 17 -4 17 -6 18 C-4.23536928 11.89262558 -2.30442525 5.92566493 0 0 Z " fill="#FC6830" transform="translate(131,173)"/>
<path d="M0 0 C0.33 0 0.66 0 1 0 C0.75759721 6.81151829 0.45683174 11.68055567 -4 17 C-5 15 -5 15 -4.00390625 11.5234375 C-3.53099953 10.13802064 -3.05018356 8.75528453 -2.5625 7.375 C-2.31951172 6.66859375 -2.07652344 5.9621875 -1.82617188 5.234375 C-1.22412795 3.48726713 -0.61291983 1.74332214 0 0 Z " fill="#F1B868" transform="translate(11,89)"/>
<path d="M0 0 C0.66 0.33 1.32 0.66 2 1 C0.625 3.5 0.625 3.5 -1 6 C-1.66 6 -2.32 6 -3 6 C-3.4021875 7.175625 -3.4021875 7.175625 -3.8125 8.375 C-5 11 -5 11 -8 13 C-7.39665691 9.29496359 -5.77525763 7.14031852 -3.4375 4.25 C-2.79683594 3.45078125 -2.15617188 2.6515625 -1.49609375 1.828125 C-1.00238281 1.22484375 -0.50867188 0.6215625 0 0 Z " fill="#F3761C" transform="translate(144,178)"/>
<path d="M0 0 C0.33 0.99 0.66 1.98 1 3 C1.66 3.33 2.32 3.66 3 4 C3 5.32 3 6.64 3 8 C-0.93673644 6.68775452 -3.22719294 5.08089673 -6 2 C-4.02 1.34 -2.04 0.68 0 0 Z " fill="#F2AE4A" transform="translate(61,169)"/>
<path d="M0 0 C0.66 0 1.32 0 2 0 C1.25 5.75 1.25 5.75 -1 8 C-3.625 8.125 -3.625 8.125 -6 8 C-6 7.01 -6 6.02 -6 5 C-4.35 4.67 -2.7 4.34 -1 4 C-0.67 2.68 -0.34 1.36 0 0 Z " fill="#DF4B34" transform="translate(29,47)"/>
<path d="M0 0 C0.33 0.99 0.66 1.98 1 3 C1.99 3.33 2.98 3.66 4 4 C4 4.99 4 5.98 4 7 C4.66 7 5.32 7 6 7 C8.1875 9.3125 8.1875 9.3125 10 12 C9.67 12.99 9.34 13.98 9 15 C5.7 10.71 2.4 6.42 -1 2 C-0.67 1.34 -0.34 0.68 0 0 Z " fill="#F2741C" transform="translate(58,137)"/>
<path d="M0 0 C3.28788824 3.11016455 5.83735988 6.01618925 8 10 C6.68 10 5.36 10 4 10 C3.32845067 8.71086513 2.66291141 7.41859796 2 6.125 C1.62875 5.40570313 1.2575 4.68640625 0.875 3.9453125 C0 2 0 2 0 0 Z " fill="#FE992F" transform="translate(80,169)"/>
<path d="M0 0 C0.61875 0.474375 1.2375 0.94875 1.875 1.4375 C3.90705546 3.02417441 3.90705546 3.02417441 6 4 C5.67 4.66 5.34 5.32 5 6 C5.99 6.33 6.98 6.66 8 7 C7.67 7.66 7.34 8.32 7 9 C4.36 7.02 1.72 5.04 -1 3 C-0.67 2.01 -0.34 1.02 0 0 Z " fill="#F0B456" transform="translate(2,129)"/>
<path d="M0 0 C2 2 2 2 3 5.0625 C3.65752556 8.12150806 3.65752556 8.12150806 6 9 C6 10.65 6 12.3 6 14 C5.34 14 4.68 14 4 14 C4 12.68 4 11.36 4 10 C3.34 10 2.68 10 2 10 C1.34 6.7 0.68 3.4 0 0 Z " fill="#EB642F" transform="translate(112,202)"/>
<path d="M0 0 C0.66 0 1.32 0 2 0 C1.67 0.66 1.34 1.32 1 2 C0.67 1.34 0.34 0.68 0 0 Z M-6 1 C-3.1875 0.6875 -3.1875 0.6875 0 1 C1.9375 3.375 1.9375 3.375 3 6 C2.67 6.66 2.34 7.32 2 8 C0.66382648 7.02471263 -0.6688751 6.04466681 -2 5.0625 C-2.7425 4.51722656 -3.485 3.97195312 -4.25 3.41015625 C-4.8275 2.94480469 -5.405 2.47945312 -6 2 C-6 1.67 -6 1.34 -6 1 Z " fill="#F1AD4D" transform="translate(96,195)"/>
<path d="M0 0 C0.33 0.66 0.66 1.32 1 2 C2.32 1.34 3.64 0.68 5 0 C5.33 0.66 5.66 1.32 6 2 C4.35 2.33 2.7 2.66 1 3 C1 4.65 1 6.3 1 8 C0.01 8.33 -0.98 8.66 -2 9 C-1.34 6.03 -0.68 3.06 0 0 Z " fill="#DD6652" transform="translate(184,7)"/>
<path d="M0 0 C0.99 0.33 1.98 0.66 3 1 C0.69 2.65 -1.62 4.3 -4 6 C-4.33 5.34 -4.66 4.68 -5 4 C-5.99 3.67 -6.98 3.34 -8 3 C-5.29120665 1.64560332 -2.99066732 1.93498549 0 2 C0 1.34 0 0.68 0 0 Z " fill="#F3AF4C" transform="translate(225,135)"/>
<path d="M0 0 C0.66 0.33 1.32 0.66 2 1 C0.71284028 2.64936048 -0.57987019 4.29439047 -1.875 5.9375 C-2.95394531 7.31228516 -2.95394531 7.31228516 -4.0546875 8.71484375 C-6 11 -6 11 -8 12 C-6.49087042 7.01987239 -3.44338151 3.75740058 0 0 Z " fill="#F2751C" transform="translate(184,127)"/>
<path d="M0 0 C0.66 0.33 1.32 0.66 2 1 C0.125 8.75 0.125 8.75 -1 11 C-1.66 11 -2.32 11 -3 11 C-2.01 7.37 -1.02 3.74 0 0 Z " fill="#D5604E" transform="translate(168,57)"/>
<path d="M0 0 C1.32 0.33 2.64 0.66 4 1 C1.69 2.65 -0.62 4.3 -3 6 C-3.33 4.68 -3.66 3.36 -4 2 C-2.68 2 -1.36 2 0 2 C0 1.34 0 0.68 0 0 Z " fill="#F1B459" transform="translate(183,165)"/>
<path d="M0 0 C0.66 0.33 1.32 0.66 2 1 C-0.31 3.97 -2.62 6.94 -5 10 C-5.33 9.01 -5.66 8.02 -6 7 C-5.34 6.01 -4.68 5.02 -4 4 C-3.34 4 -2.68 4 -2 4 C-1.34 2.68 -0.68 1.36 0 0 Z " fill="#F3741B" transform="translate(209,95)"/>
<path d="M0 0 C5.75 1.875 5.75 1.875 8 3 C8 3.99 8 4.98 8 6 C4.63408134 4.55746343 2.48952921 2.66735273 0 0 Z " fill="#F0AA5C" transform="translate(108,209)"/>
<path d="M0 0 C0 3 0 3 -2 6 C-2.66 6 -3.32 6 -4 6 C-4.33 6.99 -4.66 7.98 -5 9 C-5.33 8.34 -5.66 7.68 -6 7 C-2.25 1.125 -2.25 1.125 0 0 Z " fill="#F4751D" transform="translate(169,147)"/>
<path d="M0 0 C2.45823172 3.68734758 3.01242616 6.69699971 4 11 C3.01 11 2.02 11 1 11 C0.67 7.37 0.34 3.74 0 0 Z " fill="#EEBA63" transform="translate(226,101)"/>
<path d="M0 0 C2 1 2 1 2.6328125 2.84765625 C2.79523438 3.57855469 2.95765625 4.30945313 3.125 5.0625 C3.29257813 5.79597656 3.46015625 6.52945313 3.6328125 7.28515625 C3.75398437 7.85105469 3.87515625 8.41695312 4 9 C3.01 9.495 3.01 9.495 2 10 C2 8.68 2 7.36 2 6 C1.34 6 0.68 6 0 6 C0 4.02 0 2.04 0 0 Z " fill="#D46556" transform="translate(213,63)"/>
<path d="M0 0 C2.12508244 3.18762365 2.5020163 5.26512223 3 9 C2.01 9.495 2.01 9.495 1 10 C1 8.68 1 7.36 1 6 C0.34 6 -0.32 6 -1 6 C-0.67 4.02 -0.34 2.04 0 0 Z " fill="#D66A53" transform="translate(206,39)"/>
<path d="M0 0 C2 3 2 3 1.75 5.0625 C1 7 1 7 -1 9 C-1.33 7.35 -1.66 5.7 -2 4 C-1.34 4 -0.68 4 0 4 C0 2.68 0 1.36 0 0 Z " fill="#DF5E4A" transform="translate(204,33)"/>
<path d="M0 0 C2.97 0.495 2.97 0.495 6 1 C6.66 2.98 7.32 4.96 8 7 C7.01 6.67 6.02 6.34 5 6 C5 4.68 5 3.36 5 2 C3.35 1.67 1.7 1.34 0 1 C0 0.67 0 0.34 0 0 Z " fill="#D97863" transform="translate(188,0)"/>
<path d="M0 0 C0.33 0.99 0.66 1.98 1 3 C-0.375 4.5 -0.375 4.5 -2 6 C-2.66 6 -3.32 6 -4 6 C-4 4.68 -4 3.36 -4 2 C-2.68 1.34 -1.36 0.68 0 0 Z " fill="#F39548" transform="translate(122,209)"/>
<path d="M0 0 C0.33 0.66 0.66 1.32 1 2 C1.99 1.67 2.98 1.34 4 1 C4 2.98 4 4.96 4 7 C2.35 5.35 0.7 3.7 -1 2 C-0.67 1.34 -0.34 0.68 0 0 Z " fill="#F2721C" transform="translate(82,168)"/>
<path d="M0 0 C0.99 0 1.98 0 3 0 C2.690625 0.598125 2.38125 1.19625 2.0625 1.8125 C0.89790296 4.08956772 0.89790296 4.08956772 0 7 C-0.66 7 -1.32 7 -2 7 C-1.125 1.125 -1.125 1.125 0 0 Z " fill="#D55A43" transform="translate(177,31)"/>
</svg>
