<?xml version="1.0" encoding="UTF-8"?>
<svg version="1.1" xmlns="http://www.w3.org/2000/svg" width="225" height="225">
<path d="M0 0 C11.83371393 10.08747821 20.29894329 22.26371527 26.25 36.5625 C26.54076416 37.25988281 26.83152832 37.95726562 27.13110352 38.67578125 C28.84338458 43.00547288 29.76690673 46.99334328 30.25 51.625 C27.85612843 52.29949966 25.46030779 52.96476641 23.0625 53.625 C22.38896484 53.81578125 21.71542969 54.0065625 21.02148438 54.203125 C17.34444844 55.2075836 14.0649818 55.86204741 10.25 55.625 C9.89808594 54.60921875 9.54617187 53.5934375 9.18359375 52.546875 C2.38017737 33.37382327 -7.26100682 18.10828432 -25.75 8.625 C-47.95797666 -1.45463516 -74.80086912 -2.40307935 -97.75 5.875 C-103.86435173 8.46094239 -109.34232203 11.79306926 -114.75 15.625 C-115.801875 16.3675 -116.85375 17.11 -117.9375 17.875 C-136.99739013 36.51133702 -142.39550081 63.53263655 -143.03320312 89.17358398 C-143.32051789 115.05346118 -138.81964087 142.92109737 -121.32421875 163.08984375 C-106.24838788 177.93690632 -86.0461517 183.32536244 -65.375 183.875 C-46.41976689 183.69037111 -27.54471151 179.52089212 -13.23828125 166.3046875 C-4.63573367 157.23291005 0.13987544 147.45361721 0.28125 134.8359375 C-0.35771572 123.49429591 -4.56349599 115.42487241 -12.75 107.625 C-13.74 106.965 -14.73 106.305 -15.75 105.625 C-15.96914062 106.56859375 -16.18828125 107.5121875 -16.4140625 108.484375 C-19.84223564 122.62859881 -24.99499972 135.78927388 -37.38671875 144.47265625 C-49.78993932 151.6739555 -63.34722174 153.6070148 -77.37890625 150.93359375 C-88.08369353 147.91299852 -97.3799848 142.95978292 -103.75 133.625 C-108.79326415 124.29188617 -110.69282915 114.1748542 -107.99609375 103.6953125 C-103.86715249 93.04102485 -96.94405731 84.91820347 -86.625 79.8125 C-71.13304377 73.4700117 -54.12673123 73.29352506 -37.75 75.625 C-38.94625479 68.54191243 -40.70972485 63.58082306 -46 58.4375 C-54.43950547 52.87509867 -62.96640661 52.75093277 -72.75 53.625 C-79.75509185 55.29429848 -84.67610089 59.70317961 -89.75 64.625 C-90.85408203 63.91923828 -90.85408203 63.91923828 -91.98046875 63.19921875 C-92.95628906 62.57660156 -93.93210937 61.95398438 -94.9375 61.3125 C-95.90042969 60.69761719 -96.86335938 60.08273438 -97.85546875 59.44921875 C-100.46634303 57.80376897 -103.0969602 56.20130335 -105.75 54.625 C-104.96114024 48.38976604 -101.40465412 45.52939737 -96.75 41.625 C-83.75452475 32.33656737 -69.07389072 29.80719033 -53.38671875 32.12109375 C-42.10016008 34.71217142 -32.9447062 39.36131521 -25.75 48.625 C-19.32496442 59.0797181 -15.03599384 70.24889325 -15.75 82.625 C-14.87085938 82.89054687 -13.99171875 83.15609375 -13.0859375 83.4296875 C0.0982974 88.15378103 9.86849385 98.42887277 16.25 110.625 C22.8026872 126.68901195 22.69920136 142.32816489 17.25 158.625 C9.70282252 176.37649732 -5.66694512 190.80971646 -23.40820312 198.0925293 C-49.75907268 208.25308475 -82.2155863 208.52388778 -108.3125 197.3125 C-130.85950714 186.93032516 -146.6862151 169.36216148 -155.4765625 146.23046875 C-158.94912526 136.54764248 -161.27472086 126.80336471 -162.75 116.625 C-162.8442627 115.98361084 -162.93852539 115.34222168 -163.03564453 114.68139648 C-163.98171842 107.41829078 -163.9925121 100.12685726 -164 92.8125 C-164.00100708 92.12824951 -164.00201416 91.44399902 -164.00305176 90.73901367 C-163.99156202 79.15330191 -163.19401703 67.970717 -160.75 56.625 C-160.61078125 55.95662109 -160.4715625 55.28824219 -160.328125 54.59960938 C-155.13540924 30.48713759 -142.21010034 7.87879274 -121.63183594 -6.17724609 C-85.83180307 -28.96330749 -33.1605765 -26.15546157 0 0 Z M-86.0625 104.8125 C-88.41055271 108.72592119 -89.04599984 112.07874603 -88.75 116.625 C-87.45780069 121.67632456 -85.09447328 124.72844173 -80.75 127.5625 C-73.56183847 131.70411651 -64.82698773 131.55982722 -56.75 130.625 C-49.30058359 128.44559949 -44.52571658 124.42650272 -40.63671875 117.69921875 C-37.4277004 111.31618953 -36.57644532 104.66065949 -35.75 97.625 C-42.45287184 95.60770883 -48.64749807 95.29072253 -55.625 95.3125 C-56.64980469 95.29638672 -57.67460938 95.28027344 -58.73046875 95.26367188 C-69.37855985 95.25690689 -78.1625986 97.33962029 -86.0625 104.8125 Z " fill="#000000" transform="translate(178.75,20.375)"/>
</svg>
